<?xml version="1.0" encoding="UTF-8"?>
<svg id="Camada_2" data-name="Camada 2" xmlns="http://www.w3.org/2000/svg" viewBox="0 0 15.45 27.96">
  <defs>
    <style>
      .cls-1 {
        fill: white; /* Define a cor branca */
        fill-rule: evenodd;
      }
    </style>
  </defs>
  <g id="Camada_1-2" data-name="Camada 1">
    <path class="cls-1" d="m13.61.46c.3-.47.92-.6,1.39-.29.46.3.59.93.29,1.39l-7.74,11.91,7.03,13.01c.26.49.09,1.1-.4,1.36-.48.27-1.09.09-1.36-.4l-7.28-13.47c-.21-.32-.22-.75,0-1.1L13.61.46h0Zm-5.39,0L.16,12.87c-.22.34-.21.77,0,1.1l7.28,13.47c.26.49.87.67,1.36.4.48-.27.66-.88.4-1.36L2.17,13.47,9.9,1.56c.3-.47.17-1.09-.29-1.39-.46-.3-1.08-.17-1.39.29Z"/>
  </g>
</svg>
