<?xml version="1.0" encoding="UTF-8"?>
<svg id="Camada_2" data-name="Camada 2" xmlns="http://www.w3.org/2000/svg" viewBox="0 0 15.45 27.96">
  <defs>
    <style>
      .cls-1 {
        fill: white; /* Define a cor branca */
        fill-rule: evenodd;
      }
    </style>
  </defs>
  <g id="Camada_1-2" data-name="Camada 1">
    <path class="cls-1" d="m1.84.46C1.54,0,.92-.14.45.16,0,.47-.14,1.09.16,1.56l7.74,11.91L.87,26.48c-.26.49-.08,1.1.4,1.36.48.27,1.09.09,1.36-.4l7.28-13.47c.21-.32.22-.75,0-1.1L1.84.46h0ZM7.23.46l8.06,12.41c.22.34.21.77,0,1.1l-7.28,13.47c-.26.49-.87.67-1.36.4-.48-.27-.66-.88-.4-1.36l7.03-13.01L5.55,1.56c-.3-.47-.17-1.09.29-1.39.46-.3,1.08-.17,1.39.29Z"/>
  </g>
</svg>